<?xml version="1.0" standalone="no"?>
<!DOCTYPE svg PUBLIC "-//W3C//DTD SVG 20010904//EN"
 "http://www.w3.org/TR/2001/REC-SVG-20010904/DTD/svg10.dtd">
<svg version="1.0" xmlns="http://www.w3.org/2000/svg"
 width="200.000000pt" height="200.000000pt" viewBox="0 0 200.000000 200.000000"
 preserveAspectRatio="xMidYMid meet">

<g transform="translate(0.000000,200.000000) scale(0.100000,-0.100000)"
fill="#80B7B1" stroke="none">
<path d="M409 1837 c-29 -19 -39 -37 -64 -112 -16 -50 -33 -95 -37 -101 -4 -7
-32 -15 -62 -18 -98 -13 -169 -76 -195 -173 -10 -36 -6 -73 23 -248 l35 -207
-40 -126 c-59 -192 -51 -241 49 -278 26 -9 52 -22 58 -28 6 -6 19 -58 29 -116
24 -144 52 -193 130 -233 63 -31 93 -30 397 22 163 28 307 51 320 51 14 0 117
-29 230 -65 217 -69 251 -74 298 -50 34 18 48 43 80 140 27 83 35 95 64 95 83
0 172 58 207 135 26 55 24 109 -11 318 l-31 181 41 127 c22 70 40 142 40 161
0 56 -31 94 -98 118 l-58 21 -18 112 c-20 127 -40 172 -92 215 -74 61 -90 61
-433 3 -168 -28 -315 -51 -326 -51 -12 0 -114 29 -229 65 -114 36 -223 65
-240 65 -18 0 -48 -10 -67 -23z m1179 -209 c6 -7 47 -229 91 -493 45 -264 83
-489 86 -500 2 -11 1 -26 -4 -33 -4 -7 -257 -55 -652 -122 -354 -60 -652 -112
-661 -114 -40 -9 -45 10 -132 524 -74 435 -84 507 -71 516 8 6 99 25 202 43
103 18 393 67 643 111 250 43 462 79 471 79 9 1 21 -5 27 -11z"/>
<path d="M905 1416 c-86 -32 -148 -140 -127 -221 7 -26 7 -44 1 -52 -12 -13
12 -76 40 -108 32 -36 61 -96 61 -124 0 -24 -15 -42 -85 -101 -109 -92 -139
-135 -137 -200 1 -60 16 -90 44 -90 51 0 744 123 756 134 15 15 1 96 -24 134
-16 24 -138 88 -224 117 -30 11 -59 22 -63 26 -15 12 -10 127 6 143 18 19 30
91 18 114 -5 9 -12 42 -16 72 -9 68 -28 106 -57 116 -13 4 -34 15 -48 25 -35
26 -97 32 -145 15z"/>
</g>
</svg>
